<?xml version="1.0" standalone="no"?>
<!DOCTYPE svg PUBLIC "-//W3C//DTD SVG 20010904//EN" "http://www.w3.org/TR/2001/REC-SVG-20010904/DTD/svg10.dtd">
<!-- Created using Krita: https://krita.org -->
<svg xmlns="http://www.w3.org/2000/svg" 
    xmlns:xlink="http://www.w3.org/1999/xlink"
    xmlns:krita="http://krita.org/namespaces/svg/krita"
    xmlns:sodipodi="http://sodipodi.sourceforge.net/DTD/sodipodi-0.dtd"
    width="75.36pt"
    height="72pt"
    viewBox="0 0 75.36 72">
<defs/>
<path id="shape2" transform="matrix(0.14759771522215 0 0 0.14759771522215 60.527810124416 13.8523068865156)" fill="#0f3058" fill-rule="evenodd" stroke="#0a0a00" stroke-width="3.6" stroke-linecap="square" stroke-linejoin="bevel" d="M0 29L49 0L98 63L55.1954 125.862C43.5269 91.5955 12.7906 37.0946 0 29Z"/><path id="shape01" transform="matrix(0.125446661326817 -0.0777703067025133 0.0777703067025133 0.125446661326817 38.1657027608056 4.3613430233123)" fill="#0f3058" fill-rule="evenodd" stroke="#0a0a00" stroke-width="3.6" stroke-linecap="square" stroke-linejoin="bevel" d="M0 32.2403L53.5532 0L102.553 63L66.4106 115.01C54.5063 87.299 26.4881 51.2473 0 32.2403Z"/><path id="shape02" transform="matrix(0.0584653244999764 -0.135524496819736 0.135524496819736 0.0584653244999764 16.713327134304 11.6122895275326)" fill="#0f3058" fill-rule="evenodd" stroke="#0a0a00" stroke-width="3.6" stroke-linecap="square" stroke-linejoin="bevel" d="M0 28.1633L59.6961 0L108.718 57.4023L68.637 105.597C56.7327 77.8861 26.4881 47.1703 0 28.1633Z"/><path id="shape03" transform="matrix(-0.14759771522215 0 0 0.14759771522215 14.8621126210437 14.248858462679)" fill="#0f3058" fill-rule="evenodd" stroke="#0a0a00" stroke-width="3.6" stroke-linecap="square" stroke-linejoin="bevel" d="M0 29L49 0L98 63L55.1954 125.862C43.5269 91.5955 12.7906 37.0946 0 29Z"/><circle id="shape0" transform="matrix(0.14759771522215 0 0 0.14759771522215 5.74005642449313 7.78282484467921)" r="216.499997307825" cx="216.499997307825" cy="216.499997307825" fill="#1744b0" fill-rule="evenodd" stroke="#000000" stroke-width="3.6" stroke-linecap="square" stroke-linejoin="bevel"/><path id="shape1" transform="matrix(0.14759771522215 0 0 0.14759771522215 37.71590617934 29.6905997573448)" fill="#ffffff" fill-rule="evenodd" stroke="#000000" stroke-opacity="0" stroke-width="0" stroke-linecap="square" stroke-linejoin="bevel" d="M0 64.565L0 143.179C47.2809 142.958 116.864 169.555 143.072 128.283C161.024 106.288 170.894 17.2288 121.151 1.27895C38.4104 -10.7513 38.5684 66.0884 0 64.565Z"/><path id="shape011" transform="matrix(-0.147597714215838 0 0 0.147597714215838 37.9237469927736 29.711411842913)" fill="#ffffff" fill-rule="evenodd" stroke="#000000" stroke-opacity="0" stroke-width="0" stroke-linecap="square" stroke-linejoin="bevel" d="M0.10163 64.565L0 143.179C47.2809 142.958 118.299 169.555 144.507 128.283C162.459 106.288 172.329 17.2288 122.586 1.27895C39.8452 -10.7513 38.67 66.0884 0.10163 64.565Z"/><path id="shape3" transform="matrix(0.14759771522215 0 0 0.14759771522215 11.6437466024483 55.0668774463149)" fill="none" stroke="#ffffff" stroke-width="11" stroke-linecap="square" stroke-linejoin="bevel" d="M0 0C19.9567 1.83716 40.2502 2.52203 60.2069 4.35919L68.6922 44.6643L130.917 53.1496L139.643 9.00072L176.643 10.0007"/><path id="shape04" transform="matrix(-0.147597715350589 0 0 0.147597715350589 63.4825028016141 55.0668770724058)" fill="none" stroke="#ffffff" stroke-width="11" stroke-linecap="square" stroke-linejoin="bevel" d="M0 0L51.3334 4.37334L59.8187 44.6784L122.044 53.1637L130.77 9.01487L167.77 10.0149"/><ellipse id="shape5" transform="matrix(0.14759771522215 0 0 0.14759771522215 42.288363046988 38.0194458847881)" rx="24.5" ry="45" cx="24.5" cy="45" fill="#00a704" fill-rule="evenodd" stroke="#000000" stroke-opacity="0" stroke-width="0" stroke-linecap="square" stroke-linejoin="bevel"/><ellipse id="shape07" transform="matrix(0.147597713242933 0 0 0.147597713242933 27.1002162218482 37.8885998469082)" rx="24.5" ry="45" cx="24.5" cy="45" fill="#00a504" fill-rule="evenodd" stroke="#000000" stroke-opacity="0" stroke-width="0" stroke-linecap="square" stroke-linejoin="bevel"/><ellipse id="shape51" transform="matrix(0.129386361728503 0 0 0.129386361728503 42.7194765871862 38.9016875146589)" rx="24.5" ry="45" cx="24.5" cy="45" fill="#000000" fill-rule="evenodd" stroke="#000000" stroke-opacity="0" stroke-width="0" stroke-linecap="square" stroke-linejoin="bevel"/><path id="shape0111" transform="matrix(0.219730226604403 0 0 0.219730226604403 62.6914739660667 53.1684078670898)" fill="#1744b0" fill-rule="evenodd" stroke="#000000" stroke-opacity="0" stroke-width="0" stroke-linecap="square" stroke-linejoin="bevel" d="M0 14.88L8.16 0L14.04 4.08L8.88 13.8Z"/><path id="shape021" transform="matrix(-0.219730223787501 0 0 0.219730223787501 12.6142075782879 53.0618665346854)" fill="#1744b0" fill-rule="evenodd" stroke="#000000" stroke-opacity="0" stroke-width="0" stroke-linecap="square" stroke-linejoin="bevel" d="M0 14.88L8.16 0L14.04 4.08L8.88 13.8Z"/><ellipse id="shape06" transform="matrix(0.0678820633331372 0 0 0.0678820633331372 42.1471881846976 37.6439378780812)" rx="24.5" ry="45" cx="24.5" cy="45" fill="#ffffff" fill-rule="evenodd" stroke="#000000" stroke-opacity="0" stroke-width="0" stroke-linecap="square" stroke-linejoin="bevel"/><ellipse id="shape52" transform="matrix(0.129386359303382 0 0 0.129386359303382 27.4801590032386 38.9587234630313)" rx="24.5" ry="45" cx="24.5" cy="45" fill="#000000" fill-rule="evenodd" stroke="#000000" stroke-opacity="0" stroke-width="0" stroke-linecap="square" stroke-linejoin="bevel"/><ellipse id="shape061" transform="matrix(0.0678820607479506 0 0 0.0678820607479506 26.9756435843044 37.7011557426512)" rx="24.5" ry="45" cx="24.5" cy="45" fill="#ffffff" fill-rule="evenodd" stroke="#000000" stroke-opacity="0" stroke-width="0" stroke-linecap="square" stroke-linejoin="bevel"/>
</svg>
